<svg width="1146" height="185" viewBox="0 0 1146 185" fill="none" xmlns="http://www.w3.org/2000/svg">
<g clip-path="url(#clip0_470_31073)">
<path d="M976.72 45.9993L971.75 59.8593H981.68L976.71 45.9993H976.72ZM973.08 39.0693H980.69L993.93 73.0593H986.31L983.33 65.1393H969.43L966.45 73.0593H959.5L973.07 39.0693H973.08Z" fill="#0172C5"/>
<path d="M995.92 36.4297H1002.55V73.0597H995.92V36.4297Z" fill="#0172C5"/>
<path d="M1023.73 53.2593C1022.4 52.5993 1021.41 52.2693 1019.43 52.2693C1015.46 52.2693 1012.8 55.5693 1012.8 60.1893C1012.8 64.8093 1015.12 68.4393 1019.43 68.4393C1021.42 68.4393 1023.4 67.7793 1024.39 67.1193L1024.73 72.3993C1022.74 73.0593 1020.76 73.0593 1018.1 73.0593C1009.83 73.0593 1005.86 67.4493 1005.86 59.8593C1005.86 52.2693 1010.16 46.9893 1018.1 46.9893C1020.75 46.9893 1022.74 47.3193 1024.39 47.9793L1023.73 53.2593Z" fill="#0172C5"/>
<path d="M1050.2 73.0693H1043.91V69.7693C1041.92 72.0793 1038.94 73.7293 1035.63 73.7293C1029.67 73.7293 1027.03 69.4393 1027.03 63.8293V47.9893H1033.65V61.1893C1033.65 64.1593 1033.65 68.4493 1037.95 68.4493C1042.59 68.4493 1043.58 63.4993 1043.58 60.1993V47.9893H1050.2V73.0693Z" fill="#0172C5"/>
<path d="M1054.83 47.9794H1060.79V51.6094C1062.78 48.6394 1065.76 47.6494 1068.4 47.6494C1072.05 47.6494 1074.36 48.9694 1075.68 51.9394C1077.34 48.9694 1080.31 47.6494 1083.62 47.6494C1089.91 47.6494 1091.57 51.9394 1091.57 57.5494V73.0594H1084.95V58.2094C1084.95 55.8994 1084.95 52.5994 1081.3 52.5994C1077 52.5994 1076.34 57.8794 1076.34 60.8494V73.0594H1069.71V58.2094C1069.71 55.8994 1069.71 52.5994 1066.07 52.5994C1061.77 52.5994 1061.1 57.8794 1061.1 60.8494V73.0594H1054.48V47.9794H1054.81H1054.83Z" fill="#0172C5"/>
<path d="M1119.38 73.0693H1113.09V69.7693C1111.11 72.0793 1108.13 73.7293 1104.82 73.7293C1098.86 73.7293 1096.21 69.4393 1096.21 63.8293V47.9893H1102.84V61.1893C1102.84 64.1593 1102.84 68.4493 1107.14 68.4493C1111.77 68.4493 1112.76 63.4993 1112.76 60.1993V47.9893H1119.38V73.0693Z" fill="#0172C5"/>
<path d="M1138.91 53.2594C1136.92 52.5994 1135.6 52.2694 1132.95 52.2694C1131.3 52.2694 1128.98 52.9294 1128.98 54.9094C1128.98 58.8694 1140.24 56.2294 1140.24 65.4694C1140.24 71.4094 1134.94 73.7194 1129.65 73.7194C1127.01 73.7194 1124.68 73.3894 1122.37 72.7294L1122.71 67.4494C1124.69 68.4394 1127.01 69.0994 1128.99 69.0994C1130.65 69.0994 1133.3 68.4394 1133.3 66.1294C1133.3 61.1794 1122.04 64.4794 1122.04 55.5694C1122.04 50.2894 1126.67 47.6494 1131.97 47.6494C1134.95 47.6494 1136.94 47.9794 1138.92 48.6394V53.2594H1138.91Z" fill="#0172C5"/>
<path d="M1145.39 41.5195C1145.24 41.1595 1145.03 40.8495 1144.77 40.5795C1144.5 40.3095 1144.19 40.0995 1143.83 39.9495C1143.47 39.7995 1143.08 39.7295 1142.66 39.7295C1142.24 39.7295 1141.85 39.8095 1141.49 39.9595C1141.13 40.1095 1140.81 40.3195 1140.54 40.5895C1140.27 40.8595 1140.06 41.1795 1139.91 41.5295C1139.76 41.8895 1139.68 42.2695 1139.68 42.6895C1139.68 43.1095 1139.75 43.4895 1139.9 43.8495C1140.05 44.2095 1140.26 44.5195 1140.53 44.7895C1140.8 45.0595 1141.11 45.2695 1141.47 45.4195C1141.83 45.5695 1142.22 45.6495 1142.64 45.6495C1143.06 45.6495 1143.45 45.5695 1143.81 45.4195C1144.17 45.2695 1144.48 45.0595 1144.76 44.7895C1145.03 44.5195 1145.24 44.1995 1145.4 43.8395C1145.55 43.4795 1145.63 43.0895 1145.63 42.6695C1145.63 42.2495 1145.56 41.8595 1145.41 41.5095L1145.39 41.5195ZM1144.8 43.6195C1144.68 43.9095 1144.52 44.1595 1144.3 44.3795C1144.08 44.5995 1143.84 44.7695 1143.55 44.8895C1143.26 45.0095 1142.96 45.0695 1142.63 45.0695C1142.3 45.0695 1141.99 45.0095 1141.71 44.8895C1141.42 44.7695 1141.18 44.5995 1140.97 44.3895C1140.76 44.1695 1140.6 43.9195 1140.48 43.6295C1140.36 43.3395 1140.3 43.0295 1140.3 42.6995C1140.3 42.3695 1140.36 42.0595 1140.48 41.7695C1140.6 41.4795 1140.76 41.2295 1140.97 41.0095C1141.18 40.7895 1141.43 40.6195 1141.71 40.4995C1142 40.3795 1142.31 40.3195 1142.65 40.3195C1142.99 40.3195 1143.3 40.3795 1143.58 40.4995C1143.86 40.6195 1144.11 40.7895 1144.32 40.9995C1144.53 41.2095 1144.69 41.4595 1144.81 41.7495C1144.93 42.0395 1144.99 42.3495 1144.99 42.6795C1144.99 43.0095 1144.93 43.3295 1144.81 43.6195H1144.8Z" fill="#0172C5"/>
<path d="M1143.66 42.9593C1143.87 42.7893 1143.97 42.5393 1143.97 42.2293C1143.97 41.9193 1143.87 41.6893 1143.66 41.5093C1143.45 41.3293 1143.16 41.2393 1142.79 41.2393H1141.63V44.1393H1142.12V43.2093H1142.79C1142.79 43.2093 1142.86 43.1993 1142.9 43.1993L1143.51 44.1393H1144.01L1143.34 43.1093C1143.45 43.0693 1143.56 43.0193 1143.65 42.9493L1143.66 42.9593ZM1142.76 42.8093H1142.12V41.6593H1142.76C1142.99 41.6593 1143.17 41.7093 1143.3 41.8093C1143.43 41.9093 1143.49 42.0493 1143.49 42.2293C1143.49 42.4093 1143.43 42.5593 1143.3 42.6593C1143.17 42.7593 1142.99 42.8093 1142.76 42.8093Z" fill="#0172C5"/>
<path d="M145.98 174.17L153.35 157.86C161.26 163.61 173.06 167.61 184.32 167.61C197.19 167.61 202.42 163.33 202.42 157.59C202.42 140.08 147.86 152.11 147.86 117.36C147.86 101.45 160.73 88.2197 187.41 88.2197C199.21 88.2197 211.27 91.0297 219.99 96.5097L213.29 112.95C204.58 108.01 195.59 105.6 187.28 105.6C174.41 105.6 169.45 110.41 169.45 116.29C169.45 133.53 224.01 121.64 224.01 155.99C224.01 171.63 211.01 184.99 184.2 184.99C169.32 184.99 154.3 180.58 145.99 174.16L145.98 174.17Z" fill="#011C41"/>
<path d="M298.61 142.36V183.39H279.04V174.43C275.15 180.98 267.64 184.45 257.05 184.45C240.16 184.45 230.11 175.09 230.11 162.67C230.11 150.25 239.09 141.15 261.08 141.15H277.7C277.7 132.19 272.34 126.98 261.08 126.98C253.44 126.98 245.53 129.52 240.3 133.66L232.79 119.09C240.7 113.48 252.36 110.4 263.89 110.4C285.88 110.4 298.61 120.56 298.61 142.34V142.36ZM277.7 160.67V153.32H263.36C253.57 153.32 250.49 156.93 250.49 161.74C250.49 166.95 254.91 170.43 262.29 170.43C269.26 170.43 275.3 167.22 277.71 160.67H277.7Z" fill="#011C41"/>
<path d="M336.01 113.09H354.51V129.13H336.55V183.39H315.64V129.13H304.51V113.09H315.64V109.88C315.64 93.7104 325.56 83.1504 343.53 83.1504C349.43 83.1504 355.59 84.3504 359.48 87.0204L353.98 102.12C351.7 100.52 348.75 99.5804 345.53 99.5804C339.36 99.5804 336.01 102.92 336.01 110.01V113.08V113.09Z" fill="#011C41"/>
<path d="M434.24 153.32H379.68C381.69 162.28 389.33 167.75 400.33 167.75C407.97 167.75 413.47 165.48 418.43 160.8L429.56 172.83C422.86 180.45 412.8 184.46 399.8 184.46C374.87 184.46 358.65 168.82 358.65 147.44C358.65 126.06 375.14 110.42 397.12 110.42C419.1 110.42 434.66 124.59 434.66 147.71C434.66 149.31 434.39 151.59 434.26 153.32H434.24ZM379.41 141.16H414.94C413.47 132.07 406.63 126.19 397.24 126.19C387.85 126.19 380.89 131.94 379.41 141.16Z" fill="#011C41"/>
<path d="M441.64 136.62C441.64 108.42 463.36 88.2402 492.58 88.2402C508.8 88.2402 522.34 94.1202 531.19 104.81L517.25 117.64C510.95 110.42 503.04 106.68 493.66 106.68C476.1 106.68 463.63 118.98 463.63 136.62C463.63 154.26 476.1 166.56 493.66 166.56C503.04 166.56 510.95 162.82 517.25 155.47L531.19 168.3C522.34 179.12 508.8 185.01 492.45 185.01C463.36 185.01 441.64 164.83 441.64 136.63V136.62Z" fill="#011C41"/>
<path d="M533.33 147.44C533.33 125.79 550.09 110.42 573.01 110.42C595.93 110.42 612.56 125.79 612.56 147.44C612.56 169.09 595.94 184.46 573.01 184.46C550.08 184.46 533.33 169.09 533.33 147.44ZM591.38 147.44C591.38 135.01 583.47 127.52 573.01 127.52C562.55 127.52 554.51 135 554.51 147.44C554.51 159.88 562.55 167.35 573.01 167.35C583.47 167.35 591.38 159.87 591.38 147.44Z" fill="#011C41"/>
<path d="M691.39 142.23V183.39H670.48V145.43C670.48 133.8 665.12 128.46 655.87 128.46C645.82 128.46 638.58 134.61 638.58 147.84V183.39H617.67V111.49H637.65V119.91C643.28 113.76 651.73 110.42 661.51 110.42C678.53 110.42 691.4 120.31 691.4 142.23H691.39Z" fill="#011C41"/>
<path d="M751.42 179.92C747.13 182.99 740.83 184.46 734.4 184.46C717.38 184.46 707.45 175.77 707.45 158.66V129.12H696.32V113.08H707.45V95.5703H728.36V113.08H746.32V129.12H728.36V158.39C728.36 164.54 731.71 167.88 737.34 167.88C740.42 167.88 743.51 166.94 745.79 165.21L751.42 179.91V179.92Z" fill="#011C41"/>
<path d="M802.42 110.42V129.67C800.68 129.54 799.34 129.4 797.73 129.4C786.2 129.4 778.56 135.68 778.56 149.45V183.4H757.65V111.49H777.63V120.98C782.72 114.03 791.3 110.42 802.43 110.42H802.42Z" fill="#011C41"/>
<path d="M874.98 142.36V183.39H855.41V174.43C851.52 180.98 844.01 184.45 833.42 184.45C816.53 184.45 806.48 175.09 806.48 162.67C806.48 150.25 815.461 141.15 837.451 141.15H854.07C854.07 132.19 848.711 126.98 837.451 126.98C829.811 126.98 821.9 129.52 816.67 133.66L809.16 119.09C817.07 113.48 828.73 110.4 840.26 110.4C862.25 110.4 874.98 120.56 874.98 142.34V142.36ZM854.07 160.67V153.32H839.73C829.94 153.32 826.86 156.93 826.86 161.74C826.86 166.95 831.28 170.43 838.66 170.43C845.63 170.43 851.671 167.22 854.081 160.67H854.07Z" fill="#011C41"/>
<path d="M881.71 147.44C881.71 125.79 898.47 110.42 921.93 110.42C937.08 110.42 949.01 116.97 954.24 128.73L938.02 137.42C934.13 130.6 928.37 127.53 921.8 127.53C911.21 127.53 902.9 134.88 902.9 147.45C902.9 160.02 911.21 167.36 921.8 167.36C928.37 167.36 934.13 164.42 938.02 157.47L954.24 166.29C949.01 177.78 937.08 184.47 921.93 184.47C898.47 184.47 881.71 169.1 881.71 147.45V147.44Z" fill="#011C41"/>
<path d="M1015.14 179.92C1010.85 182.99 1004.55 184.46 998.12 184.46C981.1 184.46 971.17 175.77 971.17 158.66V129.12H960.04V113.08H971.17V95.5703H992.08V113.08H1010.04V129.12H992.08V158.39C992.08 164.54 995.43 167.88 1001.06 167.88C1004.14 167.88 1007.23 166.94 1009.51 165.21L1015.14 179.91V179.92Z" fill="#011C41"/>
<path d="M1015.14 147.44C1015.14 125.79 1031.9 110.42 1054.82 110.42C1077.74 110.42 1094.37 125.79 1094.37 147.44C1094.37 169.09 1077.75 184.46 1054.82 184.46C1031.89 184.46 1015.14 169.09 1015.14 147.44ZM1073.19 147.44C1073.19 135.01 1065.28 127.52 1054.82 127.52C1044.36 127.52 1036.32 135 1036.32 147.44C1036.32 159.88 1044.36 167.35 1054.82 167.35C1065.28 167.35 1073.19 159.87 1073.19 147.44Z" fill="#011C41"/>
<path d="M1145.61 110.42V129.67C1143.87 129.54 1142.53 129.4 1140.92 129.4C1129.39 129.4 1121.75 135.68 1121.75 149.45V183.4H1100.84V111.49H1120.82V120.98C1125.91 114.03 1134.49 110.42 1145.62 110.42H1145.61Z" fill="#011C41"/>
<path d="M111.91 89.45C126.54 90.33 147.86 77.15 147.86 77.15C139.15 61.55 147.41 53.26 147.41 53.26C147.41 53.26 136.13 51.51 133.67 33.71C133.67 33.71 108.74 35.44 97.42 44.88C102.78 31.27 96.81 6.97001 96.81 6.97001C79.24 10.41 73.89 0.0100098 73.89 0.0100098C73.89 0.0100098 68.73 10.17 51 7.00001C51 7.00001 44.94 31.18 50.45 44.84C39.13 35.55 14.12 33.71 14.12 33.71C11.98 51.43 0.41 53.29 0.41 53.29C0.41 53.29 8.5 61.33 0 77.16C0 77.16 21.18 90.38 35.91 89.38C23.55 97.25 14.07 120.41 14.07 120.41C30.31 127.93 28.51 139.48 28.51 139.48C28.51 139.48 38.67 134.28 51.15 147.25C51.15 147.25 70.3 131.24 73.89 116.96C77.58 131.11 96.73 147.27 96.73 147.27C108.91 134.18 119.37 139.46 119.37 139.46C119.37 139.46 117.56 128.21 133.77 120.38C133.77 120.38 124.42 97.26 111.92 89.44L111.91 89.45ZM98.23 51.77C98.57 51.28 98.97 50.84 99.4 50.42C107.17 42.97 121.06 41.21 130.68 39.36C130.98 42.57 132.69 46.38 135.33 50.61C124.33 51.37 105.92 55.18 91.95 68.83C93.12 65.39 94.85 60.63 96.99 54.25C97.07 54.01 97.16 53.78 97.26 53.54C97.5 52.98 97.77 52.41 98.23 51.76V51.77ZM55.48 11.58C58.64 12.28 62.79 11.84 67.65 10.65C64.98 21.32 62.92 39.96 71.61 57.44C68.69 55.26 64.69 52.16 59.27 48.15C59.07 48 58.87 47.84 58.68 47.68C58.22 47.28 57.76 46.84 57.28 46.21C56.92 45.73 56.62 45.22 56.36 44.68C51.65 35.01 54.27 21.28 55.48 11.59V11.58ZM5.76 74.34C7.41 71.56 8.27 67.49 8.63 62.51C17.98 68.34 35.12 76.06 54.46 73.21C51.48 75.31 47.29 78.14 41.79 82.05C41.58 82.2 41.37 82.33 41.16 82.46C40.64 82.77 40.08 83.07 39.33 83.33C38.77 83.52 38.18 83.65 37.59 83.73C26.91 85.21 14.63 78.48 5.77 74.33L5.76 74.34ZM69.02 113.62C67.13 124.2 56.92 133.78 50.23 140.91C48.09 138.49 44.47 136.41 39.84 134.53C48.29 127.47 60.94 113.59 64.2 94.36C65.28 97.83 66.69 102.69 68.71 109.11C68.79 109.35 68.85 109.59 68.91 109.84C69.05 110.43 69.16 111.06 69.18 111.85C69.19 112.45 69.13 113.04 69.02 113.63V113.62ZM73.87 108.65C73.85 108.59 73.83 108.54 73.81 108.48C68.9 93.22 67 86.34 67 86.34C67 86.34 59.77 86.8 43.82 86.8C43.87 86.77 43.92 86.73 43.96 86.7C56.99 77.32 62.97 73.4 62.97 73.4C62.97 73.4 60.3 66.68 55.37 51.55C55.42 51.59 55.46 51.62 55.51 51.65C68.48 61.12 74.07 65.57 74.07 65.57C74.07 65.57 79.65 60.96 92.55 51.61C92.53 51.67 92.51 51.72 92.5 51.78C87.48 67.01 84.96 73.69 84.96 73.69C84.96 73.69 91.08 77.56 103.99 86.91C103.93 86.91 103.87 86.91 103.81 86.91C87.74 86.85 80.59 86.53 80.59 86.53C80.59 86.53 78.79 93.53 73.86 108.67L73.87 108.65ZM118.15 127.18C114.03 116.98 104.7 100.69 87.38 91.65C91.02 91.7 96.09 91.86 102.84 91.93C103.09 91.93 103.35 91.94 103.6 91.97C104.21 92.02 104.84 92.11 105.59 92.34C106.16 92.51 106.71 92.76 107.24 93.04C116.75 98.1 122.72 110.75 127.45 119.3C124.48 120.58 121.38 123.37 118.16 127.19L118.15 127.18Z" fill="#0172C5"/>
</g>
<defs>
<clipPath id="clip0_470_31073">
<rect width="1146" height="185" fill="white"/>
</clipPath>
</defs>
</svg>
